<svg width="1024" height="1024" viewBox="0 0 1024 1024" fill="none" xmlns="http://www.w3.org/2000/svg"><path fill-rule="evenodd" clip-rule="evenodd" d="M776.144 61.5618C731.224 36.0977 680.064 23.7403 628.474 25.8932C578.033 27.9981 529.158 43.8913 487.151 71.8131C471.088 66.9558 454.05 64.3445 436.402 64.3445H397.381C377.351 64.3445 361.114 80.5816 361.114 100.611C361.114 120.641 377.351 136.878 397.381 136.878H436.402C493.03 136.878 538.935 182.784 538.935 239.41C538.935 296.037 493.03 341.942 436.402 341.942H126.182C106.153 341.942 89.9154 358.179 89.9154 378.209C89.9154 398.238 106.153 414.475 126.182 414.475H436.402C442.457 414.475 449.153 415.712 459.078 417.949C504.805 428.256 538.935 469.173 538.935 517.974C538.935 574.601 493.03 620.506 436.402 620.506H126.182C106.153 620.506 89.9154 636.744 89.9154 656.773C89.9154 676.803 106.153 693.04 126.182 693.04H436.402C493.03 693.04 538.935 738.946 538.935 795.572C538.935 852.199 493.03 898.104 436.402 898.104H397.381C377.351 898.104 361.114 914.341 361.114 934.371C361.114 954.4 377.351 970.637 397.381 970.637H436.402C464.174 970.637 490.436 964.17 513.764 952.66C552.079 1002.97 619.927 1023.32 680.779 999.824C722.55 983.695 752.876 950.049 766.029 910.157C794.382 922.558 826.639 925.846 858.149 918.178C917.667 903.696 961.597 853.275 967.788 792.332C971.309 757.635 962.151 723.605 943.139 695.907C982.285 667.393 1005.82 620.064 1002.29 569.025C999.565 529.765 981.338 495.06 953.841 470.737C969.982 456.469 983.043 438.501 991.632 417.763C1014.01 363.745 1001.64 301.568 960.294 260.226L960.166 260.099C952.024 252.038 943.002 245.021 933.311 239.155C932.366 238.481 931.379 237.845 930.352 237.253C922.392 232.657 914.045 228.85 905.429 225.862C896.689 195.286 882.716 166.389 864.072 140.479C840.801 108.138 810.803 81.2146 776.144 61.5618ZM826.949 221.277C821.131 207.754 813.845 194.863 805.196 182.843C788.04 158.999 765.926 139.151 740.373 124.662C707.256 105.888 669.533 96.7762 631.498 98.3635C606.549 99.4046 582.119 105.021 559.389 114.821C587.495 142.568 606.259 179.756 610.537 221.24C615.427 220.168 620.384 219.347 625.389 218.786C652.421 215.756 679.76 220.415 704.263 232.226C721.903 240.729 737.275 252.53 749.785 266.682C760.08 255.04 772.228 245.086 785.796 237.253C798.669 229.821 812.554 224.451 826.949 221.277ZM865.745 290.829C863.204 290.557 860.644 290.419 858.074 290.419C845.432 290.419 833.012 293.747 822.062 300.069C811.113 306.39 802.021 315.482 795.699 326.432C789.377 337.381 786.049 349.801 786.049 362.444C786.049 382.474 769.812 398.711 749.783 398.711C729.753 398.711 713.516 382.474 713.516 362.444C713.516 334.786 697.68 309.573 672.767 297.565C660.559 291.68 646.937 289.359 633.469 290.868C621.02 292.264 609.169 296.879 599.074 304.236C587.233 333.922 567.502 359.606 542.471 378.697C575.331 403.752 599.06 440.166 607.791 482.1C618.073 479.303 628.669 477.642 639.389 477.172C662.393 476.163 685.305 480.664 706.218 490.299C727.131 499.935 745.439 514.427 759.619 532.569C773.712 550.599 783.321 571.716 787.66 594.181C794.497 625.956 821.732 649.055 853.883 650.908C854.719 650.956 855.551 651.033 856.377 651.138C860.985 651.25 865.593 650.919 870.136 650.15C870.961 649.918 871.798 649.714 872.646 649.538C907.941 642.248 932.414 609.991 929.929 574.039C927.31 536.287 895.921 507.002 858.079 507.002C838.05 507.002 821.812 490.766 821.811 470.736C821.811 450.707 838.048 434.47 858.077 434.469C887.208 434.469 913.472 416.921 924.62 390.007C935.756 363.122 929.617 332.176 909.067 311.577C898.348 300.992 884.581 294.034 869.702 291.682C868.357 291.47 867.037 291.184 865.745 290.829ZM870.931 723.124C863.864 723.753 856.751 723.861 849.65 723.444C848.495 723.376 847.349 723.253 846.216 723.077C783.006 717.904 729.906 671.835 716.624 608.853L716.482 608.142C714.34 596.871 709.536 586.275 702.471 577.236C695.406 568.198 686.284 560.977 675.865 556.176C665.445 551.375 654.03 549.133 642.568 549.636C631.61 550.117 620.913 553.094 611.291 558.332C610.865 558.599 610.432 558.858 609.992 559.108C608.634 559.883 607.302 560.702 605.999 561.563C596.157 599.969 573.612 633.287 543.107 656.773C584.68 688.781 611.469 739.048 611.469 795.572C611.469 838.272 596.181 877.401 570.782 907.785C589.746 933.488 623.983 944.002 654.651 932.16C688.989 918.901 707.805 881.882 698.278 846.329C693.666 829.115 702.243 811.101 718.514 803.831C734.784 796.56 753.926 802.188 763.672 817.108C780.363 842.659 811.346 854.917 841 847.702C870.654 840.486 892.539 815.367 895.626 785.005C898.026 761.344 888.593 738.307 870.931 723.124Z" fill="#18181B"/><path d="M262.468 201.942C242.438 201.942 226.201 218.179 226.201 238.209C226.201 258.238 242.438 274.475 262.468 274.475H422.464C442.494 274.475 458.731 258.238 458.731 238.209C458.731 218.179 442.494 201.942 422.464 201.942H262.468Z" fill="#18181B"/><path d="M42.6675 481.943C22.638 481.943 6.40088 498.18 6.40088 518.21C6.40088 538.239 22.638 554.477 42.6675 554.477H422.877C442.907 554.477 459.144 538.239 459.144 518.21C459.144 498.18 442.907 481.943 422.877 481.943H42.6675Z" fill="#18181B"/><path d="M262.468 761.473C242.438 761.473 226.201 777.711 226.201 797.74C226.201 817.77 242.438 834.007 262.468 834.007H422.464C442.494 834.007 458.731 817.77 458.731 797.74C458.731 777.711 442.494 761.473 422.464 761.473H262.468Z" fill="#18181B"/></svg>